<svg viewBox="0 0 400 300" xmlns="http://www.w3.org/2000/svg">
  <defs>
    <linearGradient id="bgGradient" x1="0%" y1="0%" x2="100%" y2="100%">
      <stop offset="0%" style="stop-color:#1a1a2e;stop-opacity:1" />
      <stop offset="100%" style="stop-color:#16213e;stop-opacity:1" />
    </linearGradient>
    <linearGradient id="cardBg" x1="0%" y1="0%" x2="100%" y2="100%">
      <stop offset="0%" style="stop-color:#ffffff;stop-opacity:1" />
      <stop offset="100%" style="stop-color:#f8f9fa;stop-opacity:1" />
    </linearGradient>
    <filter id="shadow">
      <feDropShadow dx="1" dy="1" stdDeviation="1" flood-color="#000000" flood-opacity="0.2"/>
    </filter>
    <marker id="arrow" markerWidth="8" markerHeight="6" refX="7" refY="3" orient="auto">
      <polygon points="0 0, 8 3, 0 6" fill="#718096"/>
    </marker>
  </defs>
  
  <!-- Background -->
  <rect width="400" height="300" fill="url(#bgGradient)"/>
  
  <!-- Header -->
  <rect x="20" y="15" width="360" height="35" rx="6" fill="#0f3460" stroke="#1e5799" stroke-width="1" filter="url(#shadow)"/>
  <text x="200" y="37" font-family="Arial, sans-serif" font-size="14" font-weight="bold" fill="#ffffff" text-anchor="middle">Board Java Kanban</text>
  
  <!-- Column 1: Para Fazer -->
  <rect x="25" y="60" width="80" height="165" rx="5" fill="#e8f5e8" stroke="#27ae60" stroke-width="1.5" filter="url(#shadow)"/>
  <rect x="25" y="60" width="80" height="25" rx="5" fill="#27ae60"/>
  <text x="65" y="77" font-family="Arial, sans-serif" font-size="9" font-weight="bold" fill="#ffffff" text-anchor="middle">PARA FAZER</text>
  
  <!-- Cards Column 1 -->
  <rect x="30" y="95" width="70" height="28" rx="3" fill="url(#cardBg)" stroke="#bdc3c7" filter="url(#shadow)"/>
  <text x="65" y="106" font-family="Arial, sans-serif" font-size="8" font-weight="bold" text-anchor="middle">Criar Board</text>
  <text x="65" y="115" font-family="Arial, sans-serif" font-size="7" fill="#666" text-anchor="middle">#001 - Alta</text>
  
  <rect x="30" y="130" width="70" height="28" rx="3" fill="url(#cardBg)" stroke="#bdc3c7" filter="url(#shadow)"/>
  <text x="65" y="141" font-family="Arial, sans-serif" font-size="8" font-weight="bold" text-anchor="middle">Setup MySQL</text>
  <text x="65" y="150" font-family="Arial, sans-serif" font-size="7" fill="#666" text-anchor="middle">#002 - Média</text>
  
  <rect x="30" y="165" width="70" height="28" rx="3" fill="url(#cardBg)" stroke="#bdc3c7" filter="url(#shadow)"/>
  <text x="65" y="176" font-family="Arial, sans-serif" font-size="8" font-weight="bold" text-anchor="middle">Config CLI</text>
  <text x="65" y="185" font-family="Arial, sans-serif" font-size="7" fill="#666" text-anchor="middle">#003 - Baixa</text>
  
  <!-- Column 2: Em Progresso -->
  <rect x="115" y="60" width="80" height="165" rx="5" fill="#fff3cd" stroke="#f39c12" stroke-width="1.5" filter="url(#shadow)"/>
  <rect x="115" y="60" width="80" height="25" rx="5" fill="#f39c12"/>
  <text x="155" y="77" font-family="Arial, sans-serif" font-size="9" font-weight="bold" fill="#ffffff" text-anchor="middle">EM PROGRESSO</text>
  
  <!-- Cards Column 2 -->
  <rect x="120" y="95" width="70" height="28" rx="3" fill="url(#cardBg)" stroke="#bdc3c7" filter="url(#shadow)"/>
  <text x="155" y="106" font-family="Arial, sans-serif" font-size="8" font-weight="bold" text-anchor="middle">API REST</text>
  <text x="155" y="115" font-family="Arial, sans-serif" font-size="7" fill="#666" text-anchor="middle">#004 - Crítica</text>
  <circle cx="183" cy="99" r="2" fill="#f39c12"/>
  
  <rect x="120" y="130" width="70" height="28" rx="3" fill="url(#cardBg)" stroke="#bdc3c7" filter="url(#shadow)"/>
  <text x="155" y="141" font-family="Arial, sans-serif" font-size="8" font-weight="bold" text-anchor="middle">DAO Pattern</text>
  <text x="155" y="150" font-family="Arial, sans-serif" font-size="7" fill="#666" text-anchor="middle">#005 - Alta</text>
  <circle cx="183" cy="134" r="2" fill="#f39c12"/>
  
  <!-- Column 3: Finalizado -->
  <rect x="205" y="60" width="80" height="165" rx="5" fill="#d4edda" stroke="#28a745" stroke-width="1.5" filter="url(#shadow)"/>
  <rect x="205" y="60" width="80" height="25" rx="5" fill="#28a745"/>
  <text x="245" y="77" font-family="Arial, sans-serif" font-size="9" font-weight="bold" fill="#ffffff" text-anchor="middle">FINALIZADO</text>
  
  <!-- Cards Column 3 -->
  <rect x="210" y="95" width="70" height="28" rx="3" fill="url(#cardBg)" stroke="#bdc3c7" filter="url(#shadow)"/>
  <text x="245" y="106" font-family="Arial, sans-serif" font-size="8" font-weight="bold" text-anchor="middle">Setup Projeto</text>
  <text x="245" y="115" font-family="Arial, sans-serif" font-size="7" fill="#666" text-anchor="middle">#006 ✓</text>
  <circle cx="273" cy="99" r="2" fill="#28a745"/>
  
  <rect x="210" y="130" width="70" height="28" rx="3" fill="url(#cardBg)" stroke="#bdc3c7" filter="url(#shadow)"/>
  <text x="245" y="141" font-family="Arial, sans-serif" font-size="8" font-weight="bold" text-anchor="middle">Model Layer</text>
  <text x="245" y="150" font-family="Arial, sans-serif" font-size="7" fill="#666" text-anchor="middle">#007 ✓</text>
  <circle cx="273" cy="134" r="2" fill="#28a745"/>
  
  <rect x="210" y="165" width="70" height="28" rx="3" fill="url(#cardBg)" stroke="#bdc3c7" filter="url(#shadow)"/>
  <text x="245" y="176" font-family="Arial, sans-serif" font-size="8" font-weight="bold" text-anchor="middle">Gradle Build</text>
  <text x="245" y="185" font-family="Arial, sans-serif" font-size="7" fill="#666" text-anchor="middle">#008 ✓</text>
  <circle cx="273" cy="169" r="2" fill="#28a745"/>
  
  <!-- Column 4: Cancelado -->
  <rect x="295" y="60" width="80" height="165" rx="5" fill="#f8d7da" stroke="#dc3545" stroke-width="1.5" filter="url(#shadow)"/>
  <rect x="295" y="60" width="80" height="25" rx="5" fill="#dc3545"/>
  <text x="335" y="77" font-family="Arial, sans-serif" font-size="9" font-weight="bold" fill="#ffffff" text-anchor="middle">CANCELADO</text>
  
  <!-- Cards Column 4 -->
  <rect x="300" y="95" width="70" height="28" rx="3" fill="url(#cardBg)" stroke="#bdc3c7" filter="url(#shadow)"/>
  <text x="335" y="106" font-family="Arial, sans-serif" font-size="8" font-weight="bold" text-anchor="middle">Interface Web</text>
  <text x="335" y="115" font-family="Arial, sans-serif" font-size="7" fill="#666" text-anchor="middle">#009 ✗</text>
  <circle cx="363" cy="99" r="2" fill="#dc3545"/>
  
  <!-- Technology Stack Footer -->
  <rect x="20" y="240" width="360" height="45" rx="6" fill="#0f3460" stroke="#1e5799" stroke-width="1" filter="url(#shadow)"/>
  <text x="200" y="256" font-family="Arial, sans-serif" font-size="10" font-weight="bold" fill="#ffffff" text-anchor="middle">Stack Tecnológico</text>
  
  <!-- Technology Icons Row 1 -->
  <circle cx="45" cy="270" r="8" fill="#f89820"/>
  <text x="45" y="274" font-family="Arial, sans-serif" font-size="10" fill="#ffffff" text-anchor="middle">☕</text>
  <text x="60" y="274" font-family="Arial, sans-serif" font-size="8" fill="#ffffff">Java 17</text>
  
  <circle cx="125" cy="270" r="8" fill="#00758f"/>
  <text x="125" y="274" font-family="Arial, sans-serif" font-size="10" fill="#ffffff" text-anchor="middle">🗄</text>
  <text x="140" y="274" font-family="Arial, sans-serif" font-size="8" fill="#ffffff">MySQL</text>
  
  <circle cx="205" cy="270" r="8" fill="#02303a"/>
  <text x="205" y="274" font-family="Arial, sans-serif" font-size="10" fill="#ffffff" text-anchor="middle">🔧</text>
  <text x="220" y="274" font-family="Arial, sans-serif" font-size="8" fill="#ffffff">Gradle</text>
  
  <circle cx="285" cy="270" r="8" fill="#1e5799"/>
  <text x="285" y="274" font-family="Arial, sans-serif" font-size="10" fill="#ffffff" text-anchor="middle">🔄</text>
  <text x="300" y="274" font-family="Arial, sans-serif" font-size="8" fill="#ffffff">Liquibase</text>
  
  <circle cx="355" cy="270" r="8" fill="#333333"/>
  <text x="355" y="274" font-family="Arial, sans-serif" font-size="10" fill="#ffffff" text-anchor="middle">💻</text>
  
  <!-- Flow Arrows -->
  <path d="M 105 147 L 115 147" stroke="#718096" stroke-width="1.5" fill="none" marker-end="url(#arrow)"/>
  <path d="M 195 147 L 205 147" stroke="#718096" stroke-width="1.5" fill="none" marker-end="url(#arrow)"/>
  <path d="M 285 147 L 295 147" stroke="#718096" stroke-width="1.5" fill="none" marker-end="url(#arrow)"/>
  
  <!-- Card counters -->
  <rect x="30" y="200" width="20" height="12" rx="2" fill="#27ae60"/>
  <text x="40" y="209" font-family="Arial, sans-serif" font-size="8" fill="#ffffff" text-anchor="middle">3</text>
  
  <rect x="120" y="200" width="20" height="12" rx="2" fill="#f39c12"/>
  <text x="130" y="209" font-family="Arial, sans-serif" font-size="8" fill="#ffffff" text-anchor="middle">2</text>
  
  <rect x="210" y="200" width="20" height="12" rx="2" fill="#28a745"/>
  <text x="220" y="209" font-family="Arial, sans-serif" font-size="8" fill="#ffffff" text-anchor="middle">3</text>
  
  <rect x="300" y="200" width="20" height="12" rx="2" fill="#dc3545"/>
  <text x="310" y="209" font-family="Arial, sans-serif" font-size="8" fill="#ffffff" text-anchor="middle">1</text>
</svg>
